<svg width="20px" height="20px" viewBox="0 0 20 20" version="1.1" xmlns="http://www.w3.org/2000/svg" xmlns:xlink="http://www.w3.org/1999/xlink">
    <g id="UI" stroke="none" stroke-width="1" fill="none" fill-rule="evenodd">
        <g id="Browse-—-Artist-Copy" transform="translate(-31.000000, -128.000000)" fill="#DCD4D4">
            <path d="M44.8461538,136.461538 C44.8461538,139.430288 42.4302885,141.846154 39.4615385,141.846154 C36.4927885,141.846154 34.0769231,139.430288 34.0769231,136.461538 C34.0769231,133.492788 36.4927885,131.076923 39.4615385,131.076923 C42.4302885,131.076923 44.8461538,133.492788 44.8461538,136.461538 Z M51,146.461538 C51,146.052885 50.8317308,145.65625 50.5552885,145.379808 L46.4326923,141.257212 C47.40625,139.850962 47.9230769,138.168269 47.9230769,136.461538 C47.9230769,131.786058 44.1370192,128 39.4615385,128 C34.7860577,128 31,131.786058 31,136.461538 C31,141.137019 34.7860577,144.923077 39.4615385,144.923077 C41.1682692,144.923077 42.8509615,144.40625 44.2572115,143.432692 L48.3798077,147.543269 C48.65625,147.831731 49.0528846,148 49.4615385,148 C50.3028846,148 51,147.302885 51,146.461538 Z" id=""></path>
        </g>
    </g>
</svg>
