<svg width="1114px" height="275px" viewBox="0 0 1114 275" version="1.1" xmlns="http://www.w3.org/2000/svg" xmlns:xlink="http://www.w3.org/1999/xlink">
    <g id="Version-4" stroke="none" stroke-width="1" fill="none" fill-rule="evenodd">
        <g id="Contents-Copy">
            <path d="M137.5,275 C213.439153,275 275,213.439153 275,137.5 C275,61.5608469 213.439153,0 137.5,0 C61.5608469,0 0,61.5608469 0,137.5 C0,213.439153 61.5608469,275 137.5,275 Z M1.53111643,158.088724 L115.350979,158.088724 C112.150486,161.918267 109.280723,166.536625 107.092135,171.603264 C98.9156833,190.531971 97.9531689,220.232828 107.092135,231.855968 C116.231101,243.479108 133.324943,235.616608 141.870012,215.834541 C150.415081,196.052475 150.787594,162.685822 141.870012,151.344243 C139.324914,148.10733 136.065765,146.826422 132.517377,147.088724 L103.86647,147.088724 L1.12793108,147.088724 C9.5114942,130.8469 51.717015,49.0208504 60.5490704,30.7236476 L174.553335,30.7236476 C171.341677,34.5596839 168.461643,39.1900915 166.266729,44.2713763 C158.090278,63.200083 157.127763,92.9009397 166.266729,104.52408 C175.405695,116.14722 192.499537,108.28472 201.044606,88.5026533 C209.589675,68.720587 209.962188,35.3539337 201.044606,24.0123547 C199.106431,21.5473406 196.754155,20.2166756 194.175391,19.8380547 C193.813084,19.763057 193.437857,19.7236476 193.053566,19.7236476 L66.5027846,19.7236476 C26.6463839,43.8012571 0,87.5388304 0,137.5 C0,144.49729 0.522676316,151.372502 1.53111643,158.088724 Z" id="Logo" fill="#ABA9A9" opacity="0.81"></path>
            <g id="My-Music" transform="translate(292.000000, 22.000000)" font-size="192" font-family="Lato-Bold, Lato" font-weight="bold">
                <text id="Music" fill="#757575">
                    <tspan x="310" y="190">Music</tspan>
                </text>
                <text id="My" opacity="0.615380131" fill="#908D8D">
                    <tspan x="0" y="190">My</tspan>
                </text>
            </g>
        </g>
    </g>
</svg>
